<svg xmlns="http://www.w3.org/2000/svg" viewBox="0 0 40 40" fill="none">
  <defs>
    <linearGradient id="grad1" x1="0%" y1="0%" x2="100%" y2="100%">
      <stop offset="0%" stop-color="#6366F1"/>
      <stop offset="100%" stop-color="#8B5CF6"/>
    </linearGradient>
    <linearGradient id="grad2" x1="0%" y1="0%" x2="100%" y2="100%">
      <stop offset="0%" stop-color="#F472B6"/>
      <stop offset="100%" stop-color="#EC4899"/>
    </linearGradient>
    <linearGradient id="grad3" x1="0%" y1="0%" x2="100%" y2="100%">
      <stop offset="0%" stop-color="#34D399"/>
      <stop offset="100%" stop-color="#10B981"/>
    </linearGradient>
    <linearGradient id="grad4" x1="0%" y1="0%" x2="100%" y2="100%">
      <stop offset="0%" stop-color="#FBBF24"/>
      <stop offset="100%" stop-color="#F59E0B"/>
    </linearGradient>
  </defs>
  <!-- Background rounded square -->
  <rect x="2" y="2" width="36" height="36" rx="10" fill="url(#grad1)"/>
  <!-- Grid of 4 rounded tiles — toolbox feel -->
  <rect x="7" y="7" width="11" height="11" rx="3" fill="url(#grad2)"/>
  <rect x="22" y="7" width="11" height="11" rx="3" fill="url(#grad4)"/>
  <rect x="7" y="22" width="11" height="11" rx="3" fill="url(#grad3)"/>
  <rect x="22" y="22" width="11" height="11" rx="3" fill="white" opacity="0.25"/>
  <!-- Sparkle / AI accent on bottom-right tile -->
  <path d="M27.5 25 L28.2 27.3 L30.5 28 L28.2 28.7 L27.5 31 L26.8 28.7 L24.5 28 L26.8 27.3 Z" fill="white" opacity="0.9"/>
  <!-- Subtle shine -->
  <rect x="7" y="7" width="26" height="2" rx="1" fill="white" opacity="0.15"/>
</svg>
